<?xml version="1.0" encoding="UTF-8"?>
<!DOCTYPE svg  PUBLIC '-//W3C//DTD SVG 1.1//EN'  'http://www.w3.org/Graphics/SVG/1.1/DTD/svg11.dtd'>
<svg clip-rule="evenodd" fill-rule="evenodd" stroke-linejoin="round" stroke-miterlimit="2" version="1.1" viewBox="0 0 512 512" xml:space="preserve" xmlns="http://www.w3.org/2000/svg"><rect width="512" height="512" fill="#12100e"/><path d="m122.18 171.23c0.428-4.222-1.182-8.397-4.335-11.238l-32.117-38.689v-5.779h99.719l77.078 169.04 67.765-169.04h95.062v5.779l-27.459 26.327c-2.369 1.804-3.542 4.771-3.051 7.707v193.44c-0.491 2.936 0.682 5.903 3.051 7.706l26.815 26.328v5.779h-134.88v-5.779l27.779-26.971c2.731-2.728 2.731-3.531 2.731-7.704v-156.36l-77.238 196.17h-10.437l-89.926-196.17v131.48c-0.748 5.527 1.087 11.094 4.978 15.09l36.132 43.824v5.779h-102.45v-5.779l36.131-43.824c3.863-4.004 5.59-9.607 4.656-15.09v-152.02z" fill="#fff" fill-rule="nonzero"/></svg>
