<?xml version="1.0" encoding="UTF-8"?>
<!DOCTYPE svg  PUBLIC '-//W3C//DTD SVG 1.1//EN'  'http://www.w3.org/Graphics/SVG/1.1/DTD/svg11.dtd'>
<svg clip-rule="evenodd" fill-rule="evenodd" stroke-linejoin="round" stroke-miterlimit="2" version="1.1" viewBox="0 0 512 512" xml:space="preserve" xmlns="http://www.w3.org/2000/svg"><path d="m512 62.747c0-34.631-28.116-62.747-62.747-62.747h-386.51c-34.631 0-62.747 28.116-62.747 62.747v386.51c0 34.631 28.116 62.747 62.747 62.747h386.51c34.631 0 62.747-28.116 62.747-62.747v-386.51zm-228.45 193.26c0 67.436-54.297 122.1-121.27 122.1s-121.28-54.667-121.28-122.1 54.296-122.11 121.28-122.11c66.978 0 121.27 54.671 121.27 122.11zm133.04 0c0 63.476-27.148 114.96-60.637 114.96-33.49 0-60.638-51.479-60.638-114.96s27.144-114.95 60.633-114.95c33.49 0 60.638 51.461 60.638 114.95h4e-3zm54.416 0c0 56.859-9.547 102.98-21.326 102.98-11.78 0-21.323-46.109-21.323-102.98s9.547-102.98 21.323-102.98c11.775 0 21.326 46.105 21.326 102.98z"/></svg>
